<svg id="light" enable-background="new 0 0 24 24" height="512" viewBox="0 0 24 24" width="512" xmlns="http://www.w3.org/2000/svg"><g><path d="m17.304 19.25c-.128 0-.256-.049-.354-.146-2.73-2.729-7.17-2.729-9.9 0-.195.195-.512.195-.707 0s-.195-.512 0-.707c3.119-3.118 8.195-3.118 11.314 0 .195.195.195.512 0 .707-.097.097-.225.146-.353.146z"/></g><g><path d="m7.5 11c-1.379 0-2.5-1.122-2.5-2.5 0-.276.224-.5.5-.5s.5.224.5.5c0 .827.673 1.5 1.5 1.5s1.5-.673 1.5-1.5c0-.276.224-.5.5-.5s.5.224.5.5c0 1.378-1.121 2.5-2.5 2.5z"/></g><g><path d="m16.5 11c-1.379 0-2.5-1.122-2.5-2.5 0-.276.224-.5.5-.5s.5.224.5.5c0 .827.673 1.5 1.5 1.5s1.5-.673 1.5-1.5c0-.276.224-.5.5-.5s.5.224.5.5c0 1.378-1.121 2.5-2.5 2.5z"/></g><g><path d="m12 24c-6.617 0-12-5.383-12-12s5.383-12 12-12 12 5.383 12 12-5.383 12-12 12zm0-23c-6.065 0-11 4.935-11 11s4.935 11 11 11 11-4.935 11-11-4.935-11-11-11z"/></g></svg>