<?xml version="1.0" encoding="UTF-8" standalone="no"?>
<svg
   xmlns:dc="http://purl.org/dc/elements/1.1/"
   xmlns:cc="http://creativecommons.org/ns#"
   xmlns:rdf="http://www.w3.org/1999/02/22-rdf-syntax-ns#"
   xmlns:svg="http://www.w3.org/2000/svg"
   xmlns="http://www.w3.org/2000/svg"
   xmlns:sodipodi="http://sodipodi.sourceforge.net/DTD/sodipodi-0.dtd"
   xmlns:inkscape="http://www.inkscape.org/namespaces/inkscape"
   height="512pt"
   viewBox="0 -31 512.00026 512"
   width="512pt"
   version="1.1"
   id="svg8"
   sodipodi:docname="shopping-cart-icon.svg"
   inkscape:version="1.0.1 (3bc2e813f5, 2020-09-07)">
  <metadata
     id="metadata14">
    <rdf:RDF>
      <cc:Work
         rdf:about="">
        <dc:format>image/svg+xml</dc:format>
        <dc:type
           rdf:resource="http://purl.org/dc/dcmitype/StillImage" />
        <dc:title></dc:title>
      </cc:Work>
    </rdf:RDF>
  </metadata>
  <defs
     id="defs12" />
  <sodipodi:namedview
     pagecolor="#ffffff"
     bordercolor="#666666"
     borderopacity="1"
     objecttolerance="10"
     gridtolerance="10"
     guidetolerance="10"
     inkscape:pageopacity="0"
     inkscape:pageshadow="2"
     inkscape:window-width="1242"
     inkscape:window-height="872"
     id="namedview10"
     showgrid="false"
     inkscape:zoom="1.171875"
     inkscape:cx="341.33333"
     inkscape:cy="337.49333"
     inkscape:window-x="0"
     inkscape:window-y="0"
     inkscape:window-maximized="0"
     inkscape:current-layer="svg8" />
  <path
     d="m 164.96094,300.00391 h 0.0234 c 0.0195,0 0.0391,-0.004 0.0586,-0.004 H 437 c 6.69531,0 12.58203,-4.44141 14.42187,-10.87891 l 60,-209.999996 C 512.71484,74.59375 511.80859,69.726562 508.97656,65.96875 506.14062,62.210938 501.70703,60 497,60 H 130.36719 L 119.64453,11.746094 C 118.11719,4.882812 112.03125,0 105,0 H 15 C 6.714844,0 0,6.714844 0,15 0,23.285156 6.714844,30 15,30 h 77.96875 c 1.898438,8.550781 51.3125,230.91797 54.15625,243.71094 C 131.18359,280.64062 120,296.53516 120,315 c 0,24.8125 20.1875,45 45,45 h 272 c 8.28516,0 15,-6.71484 15,-15 0,-8.28516 -6.71484,-15 -15,-15 H 165 c -8.26953,0 -15,-6.73047 -15,-15 0,-8.25781 6.70703,-14.97656 14.96094,-14.99609 z M 477.11328,90 425.68359,270 H 177.03125 l -40,-180 z m 0,0"
     id="path2"
     style="fill:#ffffff" />
  <path
     d="m 150,405 c 0,24.8125 20.1875,45 45,45 24.8125,0 45,-20.1875 45,-45 0,-24.8125 -20.1875,-45 -45,-45 -24.8125,0 -45,20.1875 -45,45 z m 45,-15 c 8.26953,0 15,6.73047 15,15 0,8.26953 -6.73047,15 -15,15 -8.26953,0 -15,-6.73047 -15,-15 0,-8.26953 6.73047,-15 15,-15 z m 0,0"
     id="path4"
     style="fill:#ffffff" />
  <path
     d="m 362,405 c 0,24.8125 20.1875,45 45,45 24.8125,0 45,-20.1875 45,-45 0,-24.8125 -20.1875,-45 -45,-45 -24.8125,0 -45,20.1875 -45,45 z m 45,-15 c 8.26953,0 15,6.73047 15,15 0,8.26953 -6.73047,15 -15,15 -8.26953,0 -15,-6.73047 -15,-15 0,-8.26953 6.73047,-15 15,-15 z m 0,0"
     id="path6"
     style="fill:#ffffff" />
</svg>
