<?xml version="1.0" encoding="UTF-8" standalone="no"?>
<svg
   xmlns:dc="http://purl.org/dc/elements/1.1/"
   xmlns:cc="http://creativecommons.org/ns#"
   xmlns:rdf="http://www.w3.org/1999/02/22-rdf-syntax-ns#"
   xmlns:svg="http://www.w3.org/2000/svg"
   xmlns="http://www.w3.org/2000/svg"
   xmlns:sodipodi="http://sodipodi.sourceforge.net/DTD/sodipodi-0.dtd"
   xmlns:inkscape="http://www.inkscape.org/namespaces/inkscape"
   version="1.1"
   id="Capa_1"
   x="0px"
   y="0px"
   viewBox="0 0 279 279"
   style="enable-background:new 0 0 279 279;"
   xml:space="preserve"
   sodipodi:docname="shopping-bag-icon.svg"
   inkscape:version="1.0.1 (3bc2e813f5, 2020-09-07)"><metadata
   id="metadata39"><rdf:RDF><cc:Work
       rdf:about=""><dc:format>image/svg+xml</dc:format><dc:type
         rdf:resource="http://purl.org/dc/dcmitype/StillImage" /><dc:title></dc:title></cc:Work></rdf:RDF></metadata><defs
   id="defs37" /><sodipodi:namedview
   pagecolor="#ffffff"
   bordercolor="#666666"
   borderopacity="1"
   objecttolerance="10"
   gridtolerance="10"
   guidetolerance="10"
   inkscape:pageopacity="0"
   inkscape:pageshadow="2"
   inkscape:window-width="1920"
   inkscape:window-height="986"
   id="namedview35"
   showgrid="false"
   inkscape:zoom="2.8673835"
   inkscape:cx="134.1525"
   inkscape:cy="174.89812"
   inkscape:window-x="-11"
   inkscape:window-y="-11"
   inkscape:window-maximized="1"
   inkscape:current-layer="Capa_1" />
<path
   d="M 262.421,270.339 246.466,72.896 C 246.151,69.001 242.898,66 238.99,66 H 196.157 V 56.505 C 196.157,25.348 171.143,0 139.985,0 h -0.99 C 107.838,0 82.157,25.348 82.157,56.505 V 66 H 39.99 c -3.908,0 -7.161,3.001 -7.476,6.896 l -16,198 c -0.169,2.088 0.543,4.15 1.963,5.689 1.42,1.539 3.42,2.415 5.513,2.415 h 231 c 0.006,0 0.014,0 0.02,0 4.143,0 7.5,-3.357 7.5,-7.5 0,-0.395 -0.03,-0.783 -0.089,-1.161 z M 97.157,56.505 C 97.157,33.619 116.109,15 138.995,15 h 0.99 c 22.886,0 41.172,18.619 41.172,41.505 V 66 h -84 v -9.495 z"
   id="path2"
   style="fill:#ffffff" />
<g
   id="g4">
</g>
<g
   id="g6">
</g>
<g
   id="g8">
</g>
<g
   id="g10">
</g>
<g
   id="g12">
</g>
<g
   id="g14">
</g>
<g
   id="g16">
</g>
<g
   id="g18">
</g>
<g
   id="g20">
</g>
<g
   id="g22">
</g>
<g
   id="g24">
</g>
<g
   id="g26">
</g>
<g
   id="g28">
</g>
<g
   id="g30">
</g>
<g
   id="g32">
</g>
</svg>
