<?xml version="1.0" encoding="UTF-8" standalone="no"?>
<svg
   xmlns:dc="http://purl.org/dc/elements/1.1/"
   xmlns:cc="http://creativeco/ns#"
   xmlns:rdf="http://www.w3.org/1999/02/22-rdf-syntax-ns#"
   xmlns:svg="http://www.w3.org/2000/svg"
   xmlns="http://www.w3.org/2000/svg"
   xmlns:sodipodi="http://sodipodi.sourceforge.net/DTD/sodipodi-0.dtd"
   xmlns:inkscape="http://www.inkscape.org/namespaces/inkscape"
   version="1.1"
   width="600"
   height="600"
   stroke="black"
   stroke-width="30"
   fill="none"
   id="svg34"
   sodipodi:docname="user-icon-white.svg"
   inkscape:version="1.0.1 (3bc2e813f5, 2020-09-07)">
  <metadata
     id="metadata40">
    <rdf:RDF>
      <cc:Work
         rdf:about="">
        <dc:format>image/svg+xml</dc:format>
        <dc:type/>
        <dc:title>Abstract user icon</dc:title>
      </cc:Work>
    </rdf:RDF>
  </metadata>
  <defs
     id="defs38" />
  <sodipodi:namedview
     pagecolor="#ffffff"
     bordercolor="#666666"
     borderopacity="1"
     objecttolerance="10"
     gridtolerance="10"
     guidetolerance="10"
     inkscape:pageopacity="0"
     inkscape:pageshadow="2"
     inkscape:window-width="1920"
     inkscape:window-height="986"
     id="namedview36"
     showgrid="false"
     inkscape:zoom="1.3333334"
     inkscape:cx="322.7631"
     inkscape:cy="302.53073"
     inkscape:window-x="-11"
     inkscape:window-y="-11"
     inkscape:window-maximized="1"
     inkscape:current-layer="svg34"
     inkscape:document-rotation="0" />
  <title
     id="title26">Abstract user icon</title>
  <circle
     cx="300"
     cy="300"
     r="265"
     id="circle28"
     style="stroke:#ffffff" />
  <circle
     cx="300"
     cy="230"
     r="115"
     id="circle30"
     style="stroke:#ffffff" />
  <path
     d="m 106.81863,481.4 a 205,205 1 0 1 386.36274,0"
     stroke-linecap="butt"
     id="path32"
     style="stroke:#ffffff" />
  <path
     style="fill:#ffffff;stroke:#ffffff;stroke-width:22.5"
     d="M 272.8881,548.14553 C 218.71775,541.84309 169.69742,519.39301 130.06891,482.73792 l -5.56919,-5.15132 5.32627,-10.85142 c 2.92944,-5.96829 8.3522,-15.40274 12.05057,-20.96544 64.71087,-97.33131 198.95304,-114.18194 285.67672,-35.8593 17.41773,15.73045 31.83608,35.06216 42.81026,57.39876 5.70751,11.61694 6.28663,9.38126 -5.05647,19.52046 -24.90272,22.25966 -55.96674,39.98118 -88.91897,50.72685 -15.76616,5.14133 -35.57198,9.25338 -52.76696,10.95542 -10.47261,1.03662 -40.54035,0.81946 -50.73304,-0.3664 z"
     id="path10" />
  <path
     style="fill:#ffffff;stroke:#ffffff;stroke-width:22.5"
     d="m 284.8881,328.43668 c -38.84406,-6.12207 -71.09769,-35.09663 -81.01761,-72.78095 -2.78497,-10.57968 -3.60307,-18.24298 -3.15353,-29.5397 0.44569,-11.20024 1.64386,-17.7997 5.10986,-28.14502 9.63038,-28.74477 33.62885,-52.62683 62.68459,-62.38052 19.15106,-6.4288 41.81495,-6.65855 61.12989,-0.61968 31.07213,9.71477 56.56057,35.57193 65.73403,66.68492 3.20421,10.8675 4.1588,19.33896 3.69327,32.7759 -0.50707,14.63625 -3.05567,25.21772 -9.1027,37.79328 -5.60891,11.66442 -10.64958,18.75336 -19.95213,28.05962 -15.60386,15.61008 -33.85246,24.86752 -55.50067,28.15527 -8.53972,1.29694 -21.3848,1.29559 -29.625,-0.003 z"
     id="path12" />
</svg>
