<?xml version="1.0" encoding="UTF-8" standalone="no"?>
<svg
   xmlns:dc="http://purl.org/dc/elements/1.1/"
   xmlns:cc="http://creativecommons.org/ns#"
   xmlns:rdf="http://www.w3.org/1999/02/22-rdf-syntax-ns#"
   xmlns:svg="http://www.w3.org/2000/svg"
   xmlns="http://www.w3.org/2000/svg"
   xmlns:sodipodi="http://sodipodi.sourceforge.net/DTD/sodipodi-0.dtd"
   xmlns:inkscape="http://www.inkscape.org/namespaces/inkscape"
   version="1.1"
   id="Capa_1"
   x="0px"
   y="0px"
   viewBox="0 0 22.88 22.88"
   style="enable-background:new 0 0 22.88 22.88;"
   xml:space="preserve"
   sodipodi:docname="white-close-icon.svg"
   inkscape:version="1.0.1 (3bc2e813f5, 2020-09-07)"><metadata
   id="metadata39"><rdf:RDF><cc:Work
       rdf:about=""><dc:format>image/svg+xml</dc:format><dc:type
         rdf:resource="http://purl.org/dc/dcmitype/StillImage" /><dc:title></dc:title></cc:Work></rdf:RDF></metadata><defs
   id="defs37" /><sodipodi:namedview
   pagecolor="#ffffff"
   bordercolor="#666666"
   borderopacity="1"
   objecttolerance="10"
   gridtolerance="10"
   guidetolerance="10"
   inkscape:pageopacity="0"
   inkscape:pageshadow="2"
   inkscape:window-width="1920"
   inkscape:window-height="986"
   id="namedview35"
   showgrid="false"
   inkscape:zoom="34.965036"
   inkscape:cx="11.44"
   inkscape:cy="11.44"
   inkscape:window-x="-11"
   inkscape:window-y="-11"
   inkscape:window-maximized="1"
   inkscape:current-layer="Capa_1" />
<path
   style="fill:#ffffff"
   d="m 0.324,1.909 c -0.429,-0.429 -0.429,-1.143 0,-1.587 0.444,-0.429 1.143,-0.429 1.587,0 l 9.523,9.539 9.539,-9.539 c 0.429,-0.429 1.143,-0.429 1.571,0 0.444,0.444 0.444,1.159 0,1.587 l -9.523,9.524 9.523,9.539 c 0.444,0.429 0.444,1.143 0,1.587 -0.429,0.429 -1.143,0.429 -1.571,0 L 11.434,13.02 1.911,22.559 c -0.444,0.429 -1.143,0.429 -1.587,0 -0.429,-0.444 -0.429,-1.159 0,-1.587 l 9.523,-9.539 z"
   id="path2" />
<g
   id="g4">
</g>
<g
   id="g6">
</g>
<g
   id="g8">
</g>
<g
   id="g10">
</g>
<g
   id="g12">
</g>
<g
   id="g14">
</g>
<g
   id="g16">
</g>
<g
   id="g18">
</g>
<g
   id="g20">
</g>
<g
   id="g22">
</g>
<g
   id="g24">
</g>
<g
   id="g26">
</g>
<g
   id="g28">
</g>
<g
   id="g30">
</g>
<g
   id="g32">
</g>
</svg>
